<?xml version="1.0" encoding="UTF-8"?>
<svg id="Layer_2" data-name="Layer 2" xmlns="http://www.w3.org/2000/svg" viewBox="0 0 125.51 41.07">
  <defs>
    <style>
      .cls-1 {
        fill: #231f20;
      }

      .cls-2 {
        fill: #00a34d;
      }

      .cls-3 {
        fill: #e14c4d;
      }
    </style>
  </defs>
  <g id="Layer_1" data-name="Layer 1">
    <g>
      <g>
        <path class="cls-3" d="M14.79,13.75c.83.36,1.57.85,2.19,1.47.62.62,1.12,1.36,1.47,2.19.07.17.13.34.19.51l.08.24h4.61l-.09-.42c-.15-.72-.38-1.43-.67-2.08-.6-1.37-1.42-2.58-2.43-3.6-1.02-1.02-2.23-1.83-3.6-2.43-.7-.31-1.44-.54-2.21-.69l-.42-.08v4.6l.24.08c.21.07.42.14.62.23Z"/>
        <path class="cls-3" d="M18.57,20.32l-.34.12v.35c0,.95-.18,1.86-.54,2.68-.36.83-.85,1.57-1.47,2.19-.62.62-1.36,1.11-2.19,1.47-.83.36-1.73.54-2.68.54s-1.85-.18-2.68-.54c-.83-.36-1.57-.85-2.19-1.47-.62-.62-1.12-1.36-1.47-2.19-.36-.83-.54-1.73-.54-2.68s.18-1.86.54-2.69c.36-.83.85-1.57,1.47-2.19.62-.62,1.36-1.11,2.19-1.47.83-.36,1.73-.54,2.68-.54h.35v-4.5h-.35c-1.37,0-2.71.24-3.99.71-1.04.39-2.01.93-2.9,1.61V2.23c0-.62-.22-1.16-.65-1.59-.43-.43-.96-.64-1.58-.64S1.07.22.64.64c-.43.43-.64.96-.64,1.59v18.56c0,1.54.3,3.02.89,4.4.58,1.37,1.4,2.59,2.44,3.62,1.03,1.03,2.25,1.85,3.62,2.43,1.37.59,2.85.89,4.4.89s3.07-.3,4.44-.89c1.37-.58,2.58-1.4,3.6-2.44,1.02-1.03,1.83-2.25,2.43-3.62.6-1.37.91-2.86.91-4.4l-.02-.47h-4.14Z"/>
        <rect class="cls-3" x="10.18" y="15.67" width="2.87" height="9.44" transform="translate(-11.01 14.19) rotate(-44.99)"/>
      </g>
      <path class="cls-2" d="M38.35,15.92c-.56-.56-1.23-1.02-2-1.35-.77-.34-1.6-.51-2.47-.51-.76,0-1.51.13-2.21.4-.48.18-.93.41-1.35.71v-4.83c0-.38-.13-.71-.4-.97-.26-.26-.59-.39-.97-.39s-.7.13-.97.4c-.26.26-.39.59-.39.97v10.05c0,.86.17,1.68.49,2.44.32.76.78,1.44,1.35,2.01.57.57,1.25,1.03,2.01,1.35.76.33,1.59.49,2.44.49s1.7-.17,2.47-.49c.76-.32,1.43-.78,2-1.35.56-.57,1.02-1.25,1.35-2.01.34-.76.51-1.59.51-2.45s-.17-1.71-.51-2.47c-.33-.76-.79-1.43-1.35-2ZM33.88,23.96c-.49,0-.96-.09-1.39-.28-.43-.19-.82-.44-1.14-.76-.32-.32-.58-.7-.76-1.14-.18-.43-.28-.9-.28-1.39s.09-.96.28-1.39c.19-.43.44-.81.76-1.14.32-.32.7-.58,1.14-.76.43-.18.9-.28,1.39-.28s.96.09,1.39.28c.43.19.81.44,1.14.76.32.32.58.7.76,1.14.18.43.28.9.28,1.39s-.09.96-.28,1.39c-.19.43-.44.82-.76,1.14-.32.32-.7.58-1.14.76-.43.18-.9.28-1.39.28Z"/>
      <path class="cls-2" d="M79.57,15.57c0-.38-.13-.7-.4-.97-.26-.26-.59-.4-.97-.4h-1.86c-.55,0-1.09.1-1.59.31-.5.21-.94.5-1.31.87-.37.37-.66.81-.87,1.3-.22.49-.32,1.04-.32,1.61v7.04c0,.38.13.71.4.97.26.26.59.39.97.39s.71-.13.97-.4c.26-.26.4-.59.4-.97v-7.04c0-.39.13-.7.39-.96.27-.26.59-.39.98-.39h1.86c.38,0,.71-.13.97-.4.26-.26.4-.6.4-.97Z"/>
      <path class="cls-2" d="M89.77,15.92c-.56-.56-1.23-1.02-2-1.35-.77-.34-1.6-.51-2.47-.51s-1.68.17-2.45.51c-.76.33-1.44.79-2.01,1.35-.57.57-1.03,1.24-1.35,2-.33.77-.49,1.6-.49,2.47s.17,1.68.49,2.44c.32.76.78,1.44,1.35,2.01.57.57,1.25,1.03,2.01,1.35.76.33,1.59.49,2.44.49s1.7-.17,2.47-.49c.76-.32,1.43-.78,2-1.35.56-.57,1.02-1.25,1.35-2.01.34-.76.51-1.59.51-2.45s-.17-1.71-.51-2.47c-.33-.76-.79-1.43-1.35-2ZM81.74,20.39c0-.49.09-.96.28-1.39.19-.43.44-.81.76-1.14.32-.32.7-.58,1.14-.76.43-.18.9-.28,1.39-.28s.96.09,1.39.28c.43.19.81.44,1.14.76.32.32.58.7.76,1.14.18.43.28.9.28,1.39s-.09.96-.28,1.39c-.19.43-.44.82-.76,1.14-.32.32-.7.58-1.14.76-.43.18-.9.28-1.39.28s-.96-.09-1.39-.28c-.43-.19-.82-.44-1.14-.76s-.58-.7-.76-1.14c-.18-.43-.28-.9-.28-1.39Z"/>
      <path class="cls-2" d="M125.11,9.37c-.26-.26-.59-.4-.97-.4s-.7.13-.97.4c-.26.26-.4.59-.4.97v14.98c0,.38.13.71.4.97.26.26.59.39.97.39s.71-.13.97-.39c.26-.26.4-.59.4-.97v-14.98c0-.38-.13-.71-.4-.97Z"/>
      <path class="cls-2" d="M55.78,15.92c-.56-.56-1.23-1.02-2-1.35-.77-.34-1.6-.51-2.47-.51h-3.77c-.86,0-1.69.17-2.45.51-.76.33-1.43.79-2.01,1.35-.57.57-1.03,1.24-1.35,2-.33.77-.49,1.6-.49,2.47s.17,1.68.49,2.44c.33.76.78,1.44,1.35,2.01.58.57,1.25,1.03,2.01,1.35.76.33,1.59.49,2.45.49h3.77c.76,0,1.51-.13,2.21-.39.49-.18.95-.42,1.37-.72.05.28.17.52.38.72.26.26.59.4.97.4s.71-.13.97-.4c.26-.26.39-.59.39-.97v-4.93c0-.87-.17-1.7-.49-2.47-.32-.76-.78-1.43-1.34-2ZM43.97,20.39c0-.49.09-.96.28-1.39s.44-.81.76-1.14c.32-.32.7-.58,1.14-.76.43-.18.89-.28,1.39-.28h3.77c.49,0,.96.09,1.39.28.43.19.81.44,1.14.76.32.32.58.71.76,1.14s.28.9.28,1.39-.09.96-.28,1.39c-.18.43-.44.81-.76,1.14-.32.32-.7.58-1.14.76-.43.18-.9.28-1.39.28h-3.77c-.49,0-.96-.09-1.39-.28-.43-.19-.82-.44-1.14-.76-.32-.32-.58-.71-.76-1.14-.18-.43-.28-.9-.28-1.39Z"/>
      <path class="cls-2" d="M120.15,15.92c-.56-.56-1.23-1.02-2-1.35-.77-.34-1.6-.51-2.47-.51h-3.77c-.86,0-1.69.17-2.45.51-.76.33-1.43.79-2.01,1.35-.57.57-1.03,1.24-1.35,2-.33.77-.49,1.6-.49,2.47s.17,1.68.49,2.44c.33.76.78,1.44,1.35,2.01.58.57,1.25,1.03,2.01,1.35.76.33,1.59.49,2.45.49h3.77c.76,0,1.51-.13,2.21-.39.49-.18.95-.42,1.37-.72.05.27.17.52.38.72.26.26.59.4.97.4s.71-.13.97-.4c.26-.26.39-.59.39-.97v-4.93c0-.87-.17-1.7-.49-2.47-.33-.76-.78-1.43-1.34-2ZM108.34,20.39c0-.49.09-.96.28-1.39.18-.43.44-.81.76-1.14.32-.32.7-.58,1.14-.76.43-.18.89-.28,1.39-.28h3.77c.49,0,.96.09,1.39.28.43.19.82.44,1.14.76.32.32.58.71.76,1.14s.28.9.28,1.39-.09.96-.28,1.39c-.18.43-.44.81-.76,1.14-.32.32-.7.58-1.14.76-.43.18-.89.28-1.39.28h-3.77c-.49,0-.96-.09-1.39-.28-.43-.19-.82-.44-1.14-.76-.32-.32-.58-.71-.76-1.14-.18-.43-.28-.9-.28-1.39Z"/>
      <path class="cls-2" d="M103.94,26.82c-.2-.1-.4-.15-.61-.15-.24,0-.47.07-.7.2-.22.13-.4.31-.54.56-.3.6-.74,1.08-1.31,1.43-.55.34-1.17.52-1.89.52-.01,0-.17-.01-.17-.01l-.22.02c-.67,0-1.3-.18-1.87-.52-.57-.35-1.01-.83-1.32-1.45-.14-.23-.31-.41-.53-.54-.22-.13-.46-.19-.7-.19-.21,0-.41.05-.6.15-.35.17-.58.43-.69.8-.11.36-.09.71.08,1.05.54,1.06,1.32,1.92,2.32,2.54,1,.62,2.11.94,3.31.94h.23s.18,0,.18,0c1.19,0,2.3-.32,3.31-.94,1-.62,1.78-1.47,2.33-2.55.16-.34.19-.69.08-1.04-.11-.37-.35-.64-.69-.8Z"/>
      <path class="cls-2" d="M103.44,14.06c-.38,0-.71.14-.98.41-.26.27-.39.6-.39.98v4.93c0,.49-.09.96-.28,1.39-.19.43-.44.82-.76,1.14-.32.32-.7.58-1.14.76-.43.18-.9.28-1.39.28s-.96-.09-1.39-.28c-.43-.19-.82-.44-1.14-.76-.32-.32-.58-.7-.76-1.14-.18-.43-.28-.9-.28-1.39v-4.93c0-.38-.13-.71-.39-.98-.26-.27-.59-.41-.98-.41s-.71.14-.97.41c-.26.27-.39.6-.39.98v4.93c0,.86.17,1.68.49,2.44.32.76.78,1.44,1.35,2.01.58.57,1.25,1.03,2.01,1.35.76.33,1.59.49,2.44.49s1.68-.17,2.44-.49c.76-.32,1.44-.78,2.01-1.35.57-.57,1.03-1.25,1.35-2.01.33-.76.49-1.59.49-2.44v-4.93c0-.38-.13-.71-.39-.98s-.6-.41-.97-.41Z"/>
      <g>
        <g>
          <path class="cls-1" d="M43.07,34.64h1.52c1.06,0,1.77.61,1.77,1.61,0,1.13-.88,1.66-1.9,1.66h-.54v1.77h-.85v-5.04ZM44.45,37.15c.56,0,1.05-.33,1.05-.88,0-.59-.49-.87-1.05-.87h-.54v1.75h.54Z"/>
          <path class="cls-1" d="M48,36.69c-.39,0-.75.15-.86.19l-.22-.65s.61-.24,1.18-.24c1.11,0,1.64.56,1.64,1.61v2.09h-.84v-.33c-.22.2-.58.42-1.05.42-.66,0-1.2-.42-1.2-1.16s.65-1.17,1.58-1.17c.24,0,.5.06.67.12,0-.54-.3-.88-.92-.88ZM48.92,38.17c-.11-.06-.35-.13-.62-.13-.49,0-.81.15-.81.54,0,.33.29.53.68.53.33,0,.59-.15.75-.31v-.63Z"/>
          <path class="cls-1" d="M52.72,36.07h.82l-1.27,3.26c-.39,1.06-.91,1.63-1.73,1.63-.1,0-.21,0-.29-.03l.23-.74c.44.06.77-.25.89-.74l-1.33-3.38h.83l.91,2.39.93-2.39Z"/>
          <path class="cls-1" d="M55.95,36.81c-.58,0-1.08.21-1.15.82v2.06h-.83v-3.62h.83v.47c.19-.29.62-.54,1.15-.54v.81Z"/>
          <path class="cls-1" d="M57.96,35.99c1.06,0,1.89.83,1.89,1.89s-.83,1.89-1.89,1.89-1.89-.84-1.89-1.89.83-1.89,1.89-1.89ZM57.96,39.01c.63,0,1.08-.51,1.08-1.13s-.45-1.13-1.08-1.13-1.08.51-1.08,1.13.45,1.13,1.08,1.13Z"/>
          <path class="cls-1" d="M61.24,39.69h-.84v-5.22h.84v5.22Z"/>
          <path class="cls-1" d="M62.88,39.69h-.84v-5.22h.84v5.22Z"/>
          <path class="cls-1" d="M67.3,34.64h1.52c1.06,0,1.77.61,1.77,1.61,0,1.13-.88,1.66-1.9,1.66h-.54v1.77h-.85v-5.04ZM68.69,37.15c.56,0,1.05-.33,1.05-.88,0-.59-.49-.87-1.05-.87h-.54v1.75h.54Z"/>
          <path class="cls-1" d="M72.24,36.69c-.39,0-.75.15-.86.19l-.22-.65s.61-.24,1.18-.24c1.11,0,1.64.56,1.64,1.61v2.09h-.83v-.33c-.22.2-.58.42-1.05.42-.66,0-1.2-.42-1.2-1.16s.65-1.17,1.58-1.17c.24,0,.5.06.68.12,0-.54-.3-.88-.92-.88ZM73.16,38.17c-.11-.06-.36-.13-.62-.13-.49,0-.81.15-.81.54,0,.33.29.53.68.53.33,0,.59-.15.75-.31v-.63Z"/>
          <path class="cls-1" d="M76.96,36.07h.82l-1.27,3.26c-.39,1.06-.91,1.63-1.73,1.63-.1,0-.21,0-.29-.03l.23-.74c.44.06.77-.25.89-.74l-1.33-3.38h.83l.91,2.39.93-2.39Z"/>
          <path class="cls-1" d="M81.42,37.28v2.41h-.84v-1.96c0-.58-.21-.97-.69-.97-.42,0-.7.31-.83.52v2.41h-.84v-3.62h.84v.44c.16-.19.51-.52,1.04-.52.56,0,.92.25,1.12.59.19-.28.7-.59,1.25-.59.98,0,1.33.76,1.33,1.45v2.25h-.84v-1.96c0-.58-.21-.97-.69-.97-.42,0-.7.31-.83.52Z"/>
          <path class="cls-1" d="M87.79,38.18h-2.68c.07.49.49.83.99.83.54,0,.84-.29.97-.41l.49.54c-.28.31-.84.63-1.46.63-1.09,0-1.83-.79-1.83-1.9,0-1.04.74-1.88,1.79-1.88s1.75.84,1.75,1.88c0,.11,0,.24-.01.31ZM85.11,37.58h1.87c-.06-.49-.45-.86-.92-.86s-.89.38-.95.86Z"/>
          <path class="cls-1" d="M89.17,37.28v2.41h-.84v-3.62h.84v.44c.16-.19.53-.52,1.06-.52.98,0,1.35.76,1.35,1.45v2.25h-.84v-1.96c0-.58-.23-.97-.71-.97-.42,0-.72.31-.86.52Z"/>
          <path class="cls-1" d="M93.16,36.07h.77v.71h-.77v1.38c0,.45.08.76.51.76.1,0,.23-.02.31-.04l.2.72c-.08.04-.26.09-.53.09-.86,0-1.32-.41-1.32-1.14v-1.77h-.39v-.71h.39v-.83l.83-.32v1.15Z"/>
          <path class="cls-1" d="M97.01,38.64c0,.81-.63,1.13-1.32,1.13-.6,0-1.13-.21-1.52-.52l.4-.57c.22.15.65.38,1.06.38.24,0,.5-.08.54-.29.08-.33-.31-.47-.75-.61-.51-.16-1.12-.41-1.13-1.13s.67-1.05,1.28-1.05c.43,0,.9.09,1.32.39l-.35.58c-.33-.19-.66-.28-.97-.28-.26,0-.49.1-.49.33,0,.25.38.38.78.51.58.2,1.16.45,1.16,1.11Z"/>
          <path class="cls-1" d="M101.19,34.64h1.52c1.06,0,1.77.61,1.77,1.61,0,1.13-.88,1.66-1.9,1.66h-.54v1.77h-.85v-5.04ZM102.57,37.15c.56,0,1.05-.33,1.05-.88,0-.59-.49-.87-1.05-.87h-.54v1.75h.54Z"/>
          <path class="cls-1" d="M107.03,36.81c-.58,0-1.08.21-1.15.82v2.06h-.83v-3.62h.83v.47c.19-.29.62-.54,1.15-.54v.81Z"/>
          <path class="cls-1" d="M109.04,35.99c1.06,0,1.89.83,1.89,1.89s-.83,1.89-1.89,1.89-1.89-.84-1.89-1.89.83-1.89,1.89-1.89ZM109.04,39.01c.63,0,1.08-.51,1.08-1.13s-.45-1.13-1.08-1.13-1.08.51-1.08,1.13.45,1.13,1.08,1.13Z"/>
          <path class="cls-1" d="M111.58,36.07h.85v3.81c0,.7-.58,1.26-1.55,1.18v-.77c.5,0,.7-.12.7-.7v-3.53ZM112.01,35.47c-.27,0-.49-.22-.49-.49s.22-.49.49-.49.49.21.49.49-.22.49-.49.49Z"/>
          <path class="cls-1" d="M116.58,38.18h-2.68c.07.49.49.83.99.83.54,0,.84-.29.97-.41l.49.54c-.28.31-.84.63-1.46.63-1.09,0-1.83-.79-1.83-1.9,0-1.04.74-1.88,1.79-1.88s1.75.84,1.75,1.88c0,.11,0,.24-.01.31ZM113.9,37.58h1.87c-.06-.49-.45-.86-.93-.86s-.89.38-.95.86Z"/>
          <path class="cls-1" d="M120.12,39.19c-.33.36-.84.58-1.36.58-1.04,0-1.89-.78-1.89-1.89s.76-1.89,1.87-1.89c.49,0,.94.19,1.27.51l-.47.54c-.17-.16-.42-.3-.79-.3-.63,0-1.06.45-1.06,1.14,0,.64.49,1.12,1.11,1.12.35,0,.63-.15.81-.33l.52.51Z"/>
          <path class="cls-1" d="M121.41,36.07h.77v.71h-.77v1.38c0,.45.08.76.51.76.1,0,.23-.02.31-.04l.2.72c-.08.04-.26.09-.53.09-.86,0-1.32-.41-1.32-1.14v-1.77h-.39v-.71h.39v-.83l.83-.32v1.15Z"/>
          <path class="cls-1" d="M125.27,38.64c0,.81-.63,1.13-1.32,1.13-.6,0-1.13-.21-1.52-.52l.4-.57c.22.15.65.38,1.06.38.24,0,.5-.08.54-.29.08-.33-.31-.47-.75-.61-.51-.16-1.12-.41-1.13-1.13s.67-1.05,1.28-1.05c.43,0,.9.09,1.32.39l-.35.58c-.33-.19-.66-.28-.97-.28-.26,0-.49.1-.49.33,0,.25.38.38.78.51.58.2,1.16.45,1.16,1.11Z"/>
        </g>
        <circle cx="65.07" cy="37.48" r=".71"/>
        <circle cx="99.14" cy="37.48" r=".71"/>
      </g>
      <g>
        <path class="cls-2" d="M70.15,26.82c-.2-.1-.4-.15-.61-.15-.24,0-.47.07-.7.2-.22.13-.4.31-.54.56-.3.6-.74,1.08-1.31,1.43-.55.34-1.17.52-1.89.52-.01,0-.17-.01-.17-.01l-.22.02c-.67,0-1.3-.18-1.87-.52-.57-.35-1.01-.83-1.32-1.45-.14-.23-.31-.41-.53-.54-.22-.13-.46-.19-.7-.19-.21,0-.41.05-.6.15-.35.17-.58.43-.69.8-.11.36-.09.71.08,1.05.54,1.06,1.32,1.92,2.32,2.54,1,.62,2.11.94,3.31.94h.23s.18,0,.18,0c1.19,0,2.3-.32,3.31-.94,1-.62,1.78-1.47,2.33-2.55.16-.34.19-.69.08-1.04-.11-.37-.35-.64-.69-.8Z"/>
        <path class="cls-2" d="M69.64,14.06c-.38,0-.71.14-.98.41-.26.27-.39.6-.39.98v4.93c0,.49-.09.96-.28,1.39-.19.43-.44.82-.76,1.14-.32.32-.7.58-1.14.76-.43.18-.9.28-1.39.28s-.96-.09-1.39-.28c-.43-.19-.82-.44-1.14-.76-.32-.32-.58-.7-.76-1.14-.18-.43-.28-.9-.28-1.39v-4.93c0-.38-.13-.71-.39-.98-.26-.27-.59-.41-.98-.41s-.71.14-.97.41c-.26.27-.39.6-.39.98v4.93c0,.86.17,1.68.49,2.44.32.76.78,1.44,1.35,2.01.58.57,1.25,1.03,2.01,1.35.76.33,1.59.49,2.44.49s1.68-.17,2.44-.49c.76-.32,1.44-.78,2.01-1.35.57-.57,1.03-1.25,1.35-2.01.33-.76.49-1.59.49-2.44v-4.93c0-.38-.13-.71-.39-.98s-.6-.41-.97-.41Z"/>
      </g>
    </g>
  </g>
</svg>